<svg width="20" height="20" viewBox="0 0 20 20" fill="none" xmlns="http://www.w3.org/2000/svg">
<path d="M8.94175 4.2275C9.29306 4.18682 9.64643 4.16651 10.0001 4.16667C13.8867 4.16667 17.0001 6.58583 18.3334 10C18.0106 10.8305 17.5745 11.6123 17.0376 12.3233M5.43341 5.4325C3.73341 6.47 2.41675 8.0775 1.66675 10C3.00008 13.4142 6.11341 15.8333 10.0001 15.8333C11.6102 15.8418 13.1911 15.4033 14.5667 14.5667M8.23341 8.23333C8.00125 8.4655 7.81708 8.74112 7.69144 9.04446C7.56579 9.3478 7.50112 9.67292 7.50112 10.0012C7.50112 10.3296 7.56579 10.6547 7.69144 10.958C7.81708 11.2614 8.00125 11.537 8.23341 11.7692C8.46558 12.0013 8.7412 12.1855 9.04454 12.3111C9.34788 12.4368 9.673 12.5015 10.0013 12.5015C10.3297 12.5015 10.6548 12.4368 10.9581 12.3111C11.2615 12.1855 11.5371 12.0013 11.7692 11.7692" stroke="black" stroke-width="2" stroke-linecap="round" stroke-linejoin="round"/>
<path d="M3.3335 3.33333L16.6668 16.6667" stroke="black" stroke-width="2" stroke-linecap="round"/>
</svg>
